<svg width="153" height="153" viewBox="0 0 153 153" fill="none" xmlns="http://www.w3.org/2000/svg">
<path d="M121.633 86.1571C121.633 98.2543 116.828 109.856 108.274 118.41C99.7196 126.964 88.1179 131.77 76.0207 131.77C63.9235 131.77 52.3218 126.964 43.7678 118.41C35.2138 109.856 30.4082 98.2543 30.4082 86.1571C30.4154 77.2694 33.019 68.5775 37.899 61.1495C42.779 53.7214 49.7228 47.8809 57.8771 44.3456L59.661 45.7343L67.5064 51.8261C59.8284 53.7242 53.005 58.1336 48.1199 64.3537C43.2349 70.5739 40.5685 78.248 40.5443 86.1571C40.5443 105.72 56.458 121.633 76.0207 121.633C95.5834 121.633 111.497 105.72 111.497 86.1571C111.473 78.248 108.806 70.5739 103.921 64.3537C99.0364 58.1336 92.213 53.7242 84.535 51.8261L94.1643 44.3456C102.319 47.8809 109.262 53.7214 114.142 61.1495C119.022 68.5775 121.626 77.2694 121.633 86.1571ZM76.0207 45.6126L101.361 25.8979L91.2249 10.1362H60.8165L50.6804 25.8979L65.8846 37.7267L76.0207 45.6126Z" fill="#A85A08"/>
</svg>
