<svg width="18" height="23" viewBox="0 0 18 23" fill="none" xmlns="http://www.w3.org/2000/svg">
<path fill-rule="evenodd" clip-rule="evenodd" d="M11.0536 5.57143H6.59642V8.91429C6.59642 9.20981 6.47902 9.49324 6.27005 9.7022C6.06108 9.91117 5.77766 10.0286 5.48213 10.0286C5.1866 10.0286 4.90318 9.91117 4.69421 9.7022C4.48524 9.49324 4.36785 9.20981 4.36785 8.91429V5.57143H2.13927C1.85861 5.57144 1.58828 5.67736 1.38232 5.86803C1.17636 6.05871 1.04994 6.32008 1.02833 6.59991L0.00653082 19.8867C-0.0169557 20.1928 0.0230606 20.5004 0.12407 20.7904C0.225079 21.0803 0.384902 21.3462 0.593516 21.5714C0.80213 21.7967 1.05504 21.9764 1.33637 22.0993C1.61771 22.2222 1.9214 22.2857 2.22842 22.2857H15.4216C15.7286 22.2857 16.0323 22.2222 16.3136 22.0993C16.5949 21.9764 16.8478 21.7967 17.0565 21.5714C17.2651 21.3462 17.4249 21.0803 17.5259 20.7904C17.6269 20.5004 17.6669 20.1928 17.6434 19.8867L16.6216 6.59991C16.6 6.32008 16.4736 6.05871 16.2677 5.86803C16.0617 5.67736 15.7914 5.57144 15.5107 5.57143H13.2821V8.91429C13.2821 9.20981 13.1647 9.49324 12.9558 9.7022C12.7468 9.91117 12.4634 10.0286 12.1678 10.0286C11.8723 10.0286 11.5889 9.91117 11.3799 9.7022C11.171 9.49324 11.0536 9.20981 11.0536 8.91429V5.57143ZM8.82499 2.22857C8.23393 2.22857 7.66709 2.46337 7.24915 2.8813C6.83121 3.29924 6.59642 3.86609 6.59642 4.45714V5.57143H4.36785V4.45714C4.36785 3.27504 4.83744 2.14134 5.67331 1.30547C6.50919 0.469591 7.64288 0 8.82499 0C10.0071 0 11.1408 0.469591 11.9767 1.30547C12.8125 2.14134 13.2821 3.27504 13.2821 4.45714V5.57143H11.0536V4.45714C11.0536 3.86609 10.8188 3.29924 10.4008 2.8813C9.98289 2.46337 9.41604 2.22857 8.82499 2.22857Z" fill="white"/>
</svg>
