<svg width="202" height="203" viewBox="0 0 202 203" fill="none" xmlns="http://www.w3.org/2000/svg">
<path d="M65.52 17.2793H136.08C162.96 17.2793 184.8 39.1193 184.8 65.9993V136.559C184.8 149.481 179.667 161.873 170.53 171.01C161.394 180.146 149.001 185.279 136.08 185.279H65.52C38.64 185.279 16.8 163.439 16.8 136.559V65.9993C16.8 53.0779 21.933 40.6858 31.0698 31.5491C40.2066 22.4123 52.5987 17.2793 65.52 17.2793ZM63.84 34.0793C55.8199 34.0793 48.1282 37.2653 42.4571 42.9364C36.786 48.6075 33.6 56.2991 33.6 64.3193V138.239C33.6 154.955 47.124 168.479 63.84 168.479H137.76C145.78 168.479 153.472 165.293 159.143 159.622C164.814 153.951 168 146.259 168 138.239V64.3193C168 47.6033 154.476 34.0793 137.76 34.0793H63.84ZM144.9 46.6793C147.685 46.6793 150.356 47.7855 152.325 49.7547C154.294 51.7238 155.4 54.3945 155.4 57.1793C155.4 59.9641 154.294 62.6348 152.325 64.6039C150.356 66.573 147.685 67.6793 144.9 67.6793C142.115 67.6793 139.445 66.573 137.475 64.6039C135.506 62.6348 134.4 59.9641 134.4 57.1793C134.4 54.3945 135.506 51.7238 137.475 49.7547C139.445 47.7855 142.115 46.6793 144.9 46.6793ZM100.8 59.2793C111.939 59.2793 122.622 63.7043 130.499 71.5808C138.375 79.4573 142.8 90.1402 142.8 101.279C142.8 112.418 138.375 123.101 130.499 130.978C122.622 138.854 111.939 143.279 100.8 143.279C89.661 143.279 78.9781 138.854 71.1016 130.978C63.225 123.101 58.8 112.418 58.8 101.279C58.8 90.1402 63.225 79.4573 71.1016 71.5808C78.9781 63.7043 89.661 59.2793 100.8 59.2793ZM100.8 76.0793C94.1166 76.0793 87.7069 78.7343 82.981 83.4602C78.255 88.1861 75.6 94.5958 75.6 101.279C75.6 107.963 78.255 114.372 82.981 119.098C87.7069 123.824 94.1166 126.479 100.8 126.479C107.484 126.479 113.893 123.824 118.619 119.098C123.345 114.372 126 107.963 126 101.279C126 94.5958 123.345 88.1861 118.619 83.4602C113.893 78.7343 107.484 76.0793 100.8 76.0793Z" fill="black"/>
</svg>
