<svg width="30" height="43" viewBox="0 0 30 43" fill="none" xmlns="http://www.w3.org/2000/svg">
<path d="M29.5829 14.9694C29.5829 13.0399 29.2029 11.1294 28.4645 9.34679C27.7261 7.56421 26.6439 5.94452 25.2796 4.58019C23.9153 3.21587 22.2956 2.13363 20.513 1.39526C18.7304 0.656889 16.8198 0.276855 14.8904 0.276855C12.9609 0.276855 11.0504 0.656889 9.26781 1.39526C7.48523 2.13363 5.86554 3.21587 4.50122 4.58019C3.13689 5.94452 2.05465 7.56421 1.31628 9.34679C0.577909 11.1294 0.197876 13.0399 0.197876 14.9694C0.197876 17.8806 1.05634 20.5882 2.5172 22.8719H2.5004L14.8904 42.2555L27.2804 22.8719H27.2657C28.7789 20.5139 29.5831 17.7711 29.5829 14.9694ZM14.8904 21.2662C13.2204 21.2662 11.6188 20.6028 10.4379 19.4219C9.25701 18.241 8.5936 16.6394 8.5936 14.9694C8.5936 13.2994 9.25701 11.6977 10.4379 10.5169C11.6188 9.33599 13.2204 8.67258 14.8904 8.67258C16.5604 8.67258 18.162 9.33599 19.3429 10.5169C20.5238 11.6977 21.1872 13.2994 21.1872 14.9694C21.1872 16.6394 20.5238 18.241 19.3429 19.4219C18.162 20.6028 16.5604 21.2662 14.8904 21.2662Z" fill="black"/>
</svg>
