<svg width="49" height="50" viewBox="0 0 49 50" fill="none" xmlns="http://www.w3.org/2000/svg">
<path d="M9.05164 42.9854C9.05164 42.9854 6.03442 42.9854 6.03442 39.9682C6.03442 36.9509 9.05164 27.8993 24.1377 27.8993C39.2238 27.8993 42.241 36.9509 42.241 39.9682C42.241 42.9854 39.2238 42.9854 39.2238 42.9854H9.05164ZM24.1377 24.8821C26.5384 24.8821 28.8407 23.9284 30.5382 22.2309C32.2357 20.5334 33.1894 18.2311 33.1894 15.8305C33.1894 13.4298 32.2357 11.1275 30.5382 9.42997C28.8407 7.73246 26.5384 6.77881 24.1377 6.77881C21.7371 6.77881 19.4347 7.73246 17.7372 9.42997C16.0397 11.1275 15.0861 13.4298 15.0861 15.8305C15.0861 18.2311 16.0397 20.5334 17.7372 22.2309C19.4347 23.9284 21.7371 24.8821 24.1377 24.8821Z" fill="black"/>
</svg>
