<svg width="212" height="211" viewBox="0 0 212 211" fill="none" xmlns="http://www.w3.org/2000/svg">
<path d="M146.559 51.0606C140.563 44.2133 137.258 35.4213 137.259 26.3198H110.149V135.109C109.945 140.998 107.461 146.577 103.221 150.669C98.9818 154.761 93.3186 157.046 87.4265 157.043C74.9683 157.043 64.6158 146.865 64.6158 134.232C64.6158 119.142 79.1795 107.824 94.1819 112.474V84.7502C63.9139 80.7145 37.4185 104.227 37.4185 134.232C37.4185 163.447 61.6329 184.24 87.3387 184.24C114.887 184.24 137.259 161.868 137.259 134.232V79.0476C148.252 86.9423 161.45 91.178 174.984 91.1548V64.0452C174.984 64.0452 158.49 64.8348 146.559 51.0606Z" fill="black"/>
</svg>
