<svg width="162" height="162" viewBox="0 0 162 162" fill="none" xmlns="http://www.w3.org/2000/svg">
<path d="M128.735 33.3954C122.573 27.1734 115.235 22.24 107.147 18.8826C99.0593 15.5253 90.3844 13.8112 81.6277 13.8402C44.9365 13.8402 15.0325 43.7442 15.0325 80.4354C15.0325 92.1954 18.1237 103.619 23.9029 113.699L14.4949 148.24L49.7749 138.967C59.5189 144.275 70.4725 147.098 81.6277 147.098C118.319 147.098 148.223 117.194 148.223 80.5026C148.223 62.6946 141.301 45.9618 128.735 33.3954ZM81.6277 135.808C71.6821 135.808 61.9381 133.12 53.4037 128.08L51.3877 126.871L30.4213 132.381L35.9989 111.952L34.6549 109.869C29.128 101.046 26.1939 90.8465 26.1877 80.4354C26.1877 49.9266 51.0517 25.0626 81.5605 25.0626C96.3445 25.0626 110.255 30.8418 120.671 41.325C125.829 46.4582 129.917 52.5645 132.697 59.2898C135.477 66.0151 136.894 73.2254 136.866 80.5026C137 111.011 112.136 135.808 81.6277 135.808ZM112.002 94.413C110.322 93.6066 102.124 89.5746 100.645 88.9698C99.0997 88.4322 98.0245 88.1634 96.8821 89.7762C95.7397 91.4562 92.5813 95.2194 91.6405 96.2946C90.6997 97.437 89.6917 97.5714 88.0117 96.6978C86.3317 95.8914 80.9557 94.077 74.6389 88.4322C69.6661 83.997 66.3733 78.5538 65.3653 76.8738C64.4245 75.1938 65.2309 74.3202 66.1045 73.4466C66.8437 72.7074 67.7845 71.4978 68.5909 70.557C69.3973 69.6162 69.7333 68.877 70.2709 67.8018C70.8085 66.6594 70.5397 65.7186 70.1365 64.9122C69.7333 64.1058 66.3733 55.9074 65.0293 52.5474C63.6853 49.3218 62.2741 49.725 61.2661 49.6578H58.0405C56.8981 49.6578 55.1509 50.061 53.6053 51.741C52.1269 53.421 47.8261 57.453 47.8261 65.6514C47.8261 73.8498 53.8069 81.7794 54.6133 82.8546C55.4197 83.997 66.3733 100.797 83.0389 107.987C87.0037 109.735 90.0949 110.743 92.5141 111.482C96.4789 112.759 100.108 112.557 102.997 112.154C106.223 111.683 112.876 108.122 114.22 104.224C115.631 100.327 115.631 97.0338 115.16 96.2946C114.69 95.5554 113.682 95.2194 112.002 94.413Z" fill="black"/>
</svg>
